<?xml version="1.0" encoding="UTF-8"?>
<!DOCTYPE svg PUBLIC "-//W3C//DTD SVG 1.1//EN" "http://www.w3.org/Graphics/SVG/1.1/DTD/svg11.dtd">
<svg xmlns="http://www.w3.org/2000/svg" xmlns:xlink="http://www.w3.org/1999/xlink" version="1.1" width="681px" height="291px" viewBox="-0.5 -0.5 681 291"><defs><clipPath id="mx-clip-500-50-70-30-0"><rect x="500" y="50" width="70" height="30"/></clipPath><clipPath id="mx-clip-576-50-104-30-0"><rect x="576" y="50" width="104" height="30"/></clipPath><clipPath id="mx-clip-500-80-70-30-0"><rect x="500" y="80" width="70" height="30"/></clipPath><clipPath id="mx-clip-576-80-104-30-0"><rect x="576" y="80" width="104" height="30"/></clipPath><clipPath id="mx-clip-500-110-70-30-0"><rect x="500" y="110" width="70" height="30"/></clipPath><clipPath id="mx-clip-576-110-104-30-0"><rect x="576" y="110" width="104" height="30"/></clipPath><clipPath id="mx-clip-500-140-70-30-0"><rect x="500" y="140" width="70" height="30"/></clipPath><clipPath id="mx-clip-576-140-104-30-0"><rect x="576" y="140" width="104" height="30"/></clipPath><clipPath id="mx-clip-500-170-70-30-0"><rect x="500" y="170" width="70" height="30"/></clipPath><clipPath id="mx-clip-576-170-104-30-0"><rect x="576" y="170" width="104" height="30"/></clipPath><clipPath id="mx-clip-0-30-70-30-0"><rect x="0" y="30" width="70" height="30"/></clipPath><clipPath id="mx-clip-76-30-104-30-0"><rect x="76" y="30" width="104" height="30"/></clipPath><clipPath id="mx-clip-0-60-70-30-0"><rect x="0" y="60" width="70" height="30"/></clipPath><clipPath id="mx-clip-76-60-104-30-0"><rect x="76" y="60" width="104" height="30"/></clipPath><clipPath id="mx-clip-0-90-70-30-0"><rect x="0" y="90" width="70" height="30"/></clipPath><clipPath id="mx-clip-76-90-104-30-0"><rect x="76" y="90" width="104" height="30"/></clipPath><clipPath id="mx-clip-260-30-90-30-0"><rect x="260" y="30" width="90" height="30"/></clipPath><clipPath id="mx-clip-356-30-84-30-0"><rect x="356" y="30" width="84" height="30"/></clipPath><clipPath id="mx-clip-260-60-90-30-0"><rect x="260" y="60" width="90" height="30"/></clipPath><clipPath id="mx-clip-356-60-84-30-0"><rect x="356" y="60" width="84" height="30"/></clipPath><clipPath id="mx-clip-260-90-90-30-0"><rect x="260" y="90" width="90" height="30"/></clipPath><clipPath id="mx-clip-356-90-84-30-0"><rect x="356" y="90" width="84" height="30"/></clipPath><clipPath id="mx-clip-260-120-90-30-0"><rect x="260" y="120" width="90" height="30"/></clipPath><clipPath id="mx-clip-356-120-84-30-0"><rect x="356" y="120" width="84" height="30"/></clipPath><clipPath id="mx-clip-260-150-90-30-0"><rect x="260" y="150" width="90" height="30"/></clipPath><clipPath id="mx-clip-356-150-84-30-0"><rect x="356" y="150" width="84" height="30"/></clipPath><clipPath id="mx-clip-260-180-90-30-0"><rect x="260" y="180" width="90" height="30"/></clipPath><clipPath id="mx-clip-356-180-84-30-0"><rect x="356" y="180" width="84" height="30"/></clipPath><clipPath id="mx-clip-260-210-90-30-0"><rect x="260" y="210" width="90" height="30"/></clipPath><clipPath id="mx-clip-356-210-84-30-0"><rect x="356" y="210" width="84" height="30"/></clipPath><clipPath id="mx-clip-0-190-70-30-0"><rect x="0" y="190" width="70" height="30"/></clipPath><clipPath id="mx-clip-76-190-104-30-0"><rect x="76" y="190" width="104" height="30"/></clipPath><clipPath id="mx-clip-0-220-70-30-0"><rect x="0" y="220" width="70" height="30"/></clipPath><clipPath id="mx-clip-76-220-104-30-0"><rect x="76" y="220" width="104" height="30"/></clipPath><clipPath id="mx-clip-0-250-70-30-0"><rect x="0" y="250" width="70" height="30"/></clipPath><clipPath id="mx-clip-76-250-104-30-0"><rect x="76" y="250" width="104" height="30"/></clipPath></defs><g><path d="M 500 50 L 500 20 L 680 20 L 680 50" fill="#d5e8d4" stroke="#82b366" stroke-miterlimit="10" pointer-events="all"/><path d="M 500 50 L 500 210 L 680 210 L 680 50" fill="none" stroke="#82b366" stroke-miterlimit="10" pointer-events="none"/><path d="M 500 50 L 680 50" fill="none" stroke="#82b366" stroke-miterlimit="10" pointer-events="none"/><path d="M 570 50 L 570 80 L 570 110 L 570 140 L 570 170 L 570 200" fill="none" stroke="#82b366" stroke-miterlimit="10" pointer-events="none"/><g fill="rgb(0, 0, 0)" font-family="Helvetica" font-weight="bold" pointer-events="none" text-anchor="middle" font-size="12px"><text x="589.5" y="39.5">User</text></g><path d="M 500 50 M 680 50 M 680 80 L 500 80" fill="none" stroke="rgb(0, 0, 0)" stroke-linecap="square" stroke-miterlimit="10" pointer-events="none"/><path d="M 500 50 M 570 50 M 570 80 M 500 80" fill="none" stroke="rgb(0, 0, 0)" stroke-linecap="square" stroke-miterlimit="10" pointer-events="none"/><g fill="rgb(0, 0, 0)" font-family="Helvetica" font-weight="bold" pointer-events="none" clip-path="url(#mx-clip-500-50-70-30-0)" text-anchor="middle" font-size="12px"><text x="534.5" y="69.5">ObjectID </text></g><path d="M 570 50 M 680 50 M 680 80 M 570 80" fill="none" stroke="rgb(0, 0, 0)" stroke-linecap="square" stroke-miterlimit="10" pointer-events="none"/><g fill="rgb(0, 0, 0)" font-family="Helvetica" font-weight="bold" text-decoration="underline" pointer-events="none" clip-path="url(#mx-clip-576-50-104-30-0)" font-size="12px"><text x="577.5" y="69.5">id</text></g><path d="M 500 80 M 570 80 M 570 110 M 500 110" fill="none" stroke="rgb(0, 0, 0)" stroke-linecap="square" stroke-miterlimit="10" pointer-events="none"/><g fill="rgb(0, 0, 0)" font-family="Helvetica" pointer-events="none" clip-path="url(#mx-clip-500-80-70-30-0)" text-anchor="middle" font-size="12px"><text x="534.5" y="99.5">string</text></g><path d="M 570 80 M 680 80 M 680 110 M 570 110" fill="none" stroke="rgb(0, 0, 0)" stroke-linecap="square" stroke-miterlimit="10" pointer-events="none"/><g fill="rgb(0, 0, 0)" font-family="Helvetica" pointer-events="none" clip-path="url(#mx-clip-576-80-104-30-0)" font-size="12px"><text x="577.5" y="99.5">username</text></g><path d="M 500 110 M 570 110 M 570 140 M 500 140" fill="none" stroke="rgb(0, 0, 0)" stroke-linecap="square" stroke-miterlimit="10" pointer-events="none"/><g fill="rgb(0, 0, 0)" font-family="Helvetica" pointer-events="none" clip-path="url(#mx-clip-500-110-70-30-0)" text-anchor="middle" font-size="12px"><text x="534.5" y="129.5">string</text></g><path d="M 570 110 M 680 110 M 680 140 M 570 140" fill="none" stroke="rgb(0, 0, 0)" stroke-linecap="square" stroke-miterlimit="10" pointer-events="none"/><g fill="rgb(0, 0, 0)" font-family="Helvetica" pointer-events="none" clip-path="url(#mx-clip-576-110-104-30-0)" font-size="12px"><text x="577.5" y="129.5">full_name</text></g><path d="M 500 140 M 570 140 M 570 170 M 500 170" fill="none" stroke="rgb(0, 0, 0)" stroke-linecap="square" stroke-miterlimit="10" pointer-events="none"/><g fill="rgb(0, 0, 0)" font-family="Helvetica" pointer-events="none" clip-path="url(#mx-clip-500-140-70-30-0)" text-anchor="middle" font-size="12px"><text x="534.5" y="159.5">string</text></g><path d="M 570 140 M 680 140 M 680 170 M 570 170" fill="none" stroke="rgb(0, 0, 0)" stroke-linecap="square" stroke-miterlimit="10" pointer-events="none"/><g fill="rgb(0, 0, 0)" font-family="Helvetica" pointer-events="none" clip-path="url(#mx-clip-576-140-104-30-0)" font-size="12px"><text x="577.5" y="159.5">email</text></g><path d="M 500 170 M 570 170 M 570 200 M 500 200" fill="none" stroke="rgb(0, 0, 0)" stroke-linecap="square" stroke-miterlimit="10" pointer-events="none"/><g fill="rgb(0, 0, 0)" font-family="Helvetica" pointer-events="none" clip-path="url(#mx-clip-500-170-70-30-0)" text-anchor="middle" font-size="12px"><text x="534.5" y="189.5">string</text></g><path d="M 570 170 M 680 170 M 680 200 M 570 200" fill="none" stroke="rgb(0, 0, 0)" stroke-linecap="square" stroke-miterlimit="10" pointer-events="none"/><g fill="rgb(0, 0, 0)" font-family="Helvetica" pointer-events="none" clip-path="url(#mx-clip-576-170-104-30-0)" font-size="12px"><text x="577.5" y="189.5">hashed_password</text></g><path d="M 0 30 L 0 0 L 180 0 L 180 30" fill="#ffe6cc" stroke="#d79b00" stroke-miterlimit="10" pointer-events="none"/><path d="M 0 30 L 0 130 L 180 130 L 180 30" fill="none" stroke="#d79b00" stroke-miterlimit="10" pointer-events="none"/><path d="M 0 30 L 180 30" fill="none" stroke="#d79b00" stroke-miterlimit="10" pointer-events="none"/><path d="M 70 30 L 70 60 L 70 90 L 70 120" fill="none" stroke="#d79b00" stroke-miterlimit="10" pointer-events="none"/><g fill="rgb(0, 0, 0)" font-family="Helvetica" font-weight="bold" pointer-events="none" text-anchor="middle" font-size="12px"><text x="89.5" y="19.5">Text</text></g><path d="M 0 30 M 180 30 M 180 60 L 0 60" fill="none" stroke="rgb(0, 0, 0)" stroke-linecap="square" stroke-miterlimit="10" pointer-events="none"/><path d="M 0 30 M 70 30 M 70 60 M 0 60" fill="none" stroke="rgb(0, 0, 0)" stroke-linecap="square" stroke-miterlimit="10" pointer-events="none"/><g fill="rgb(0, 0, 0)" font-family="Helvetica" font-weight="bold" pointer-events="none" clip-path="url(#mx-clip-0-30-70-30-0)" text-anchor="middle" font-size="12px"><text x="34.5" y="49.5">ObjectID </text></g><path d="M 70 30 M 180 30 M 180 60 M 70 60" fill="none" stroke="rgb(0, 0, 0)" stroke-linecap="square" stroke-miterlimit="10" pointer-events="none"/><g fill="rgb(0, 0, 0)" font-family="Helvetica" font-weight="bold" text-decoration="underline" pointer-events="none" clip-path="url(#mx-clip-76-30-104-30-0)" font-size="12px"><text x="77.5" y="49.5">id</text></g><path d="M 0 60 M 70 60 M 70 90 M 0 90" fill="none" stroke="rgb(0, 0, 0)" stroke-linecap="square" stroke-miterlimit="10" pointer-events="none"/><g fill="rgb(0, 0, 0)" font-family="Helvetica" pointer-events="none" clip-path="url(#mx-clip-0-60-70-30-0)" text-anchor="middle" font-size="12px"><text x="34.5" y="79.5">string</text></g><path d="M 70 60 M 180 60 M 180 90 M 70 90" fill="none" stroke="rgb(0, 0, 0)" stroke-linecap="square" stroke-miterlimit="10" pointer-events="none"/><g fill="rgb(0, 0, 0)" font-family="Helvetica" pointer-events="none" clip-path="url(#mx-clip-76-60-104-30-0)" font-size="12px"><text x="77.5" y="79.5">value</text></g><path d="M 0 90 M 70 90 M 70 120 M 0 120" fill="none" stroke="rgb(0, 0, 0)" stroke-linecap="square" stroke-miterlimit="10" pointer-events="none"/><g fill="rgb(0, 0, 0)" font-family="Helvetica" pointer-events="none" clip-path="url(#mx-clip-0-90-70-30-0)" text-anchor="middle" font-size="12px"><text x="34.5" y="109.5">array[str]</text></g><path d="M 70 90 M 180 90 M 180 120 M 70 120" fill="none" stroke="rgb(0, 0, 0)" stroke-linecap="square" stroke-miterlimit="10" pointer-events="none"/><g fill="rgb(0, 0, 0)" font-family="Helvetica" pointer-events="none" clip-path="url(#mx-clip-76-90-104-30-0)" font-size="12px"><text x="77.5" y="109.5">tags</text></g><path d="M 260 30 L 260 0 L 440 0 L 440 30" fill="#dae8fc" stroke="#6c8ebf" stroke-miterlimit="10" pointer-events="none"/><path d="M 260 30 L 260 250 L 440 250 L 440 30" fill="none" stroke="#6c8ebf" stroke-miterlimit="10" pointer-events="none"/><path d="M 260 30 L 440 30" fill="none" stroke="#6c8ebf" stroke-miterlimit="10" pointer-events="none"/><path d="M 350 30 L 350 60 L 350 90 L 350 120 L 350 150 L 350 180 L 350 210 L 350 240" fill="none" stroke="#6c8ebf" stroke-miterlimit="10" pointer-events="none"/><g fill="rgb(0, 0, 0)" font-family="Helvetica" font-weight="bold" pointer-events="none" text-anchor="middle" font-size="12px"><text x="349.5" y="19.5">Project</text></g><path d="M 260 30 M 440 30 M 440 60 L 260 60" fill="none" stroke="rgb(0, 0, 0)" stroke-linecap="square" stroke-miterlimit="10" pointer-events="none"/><path d="M 260 30 M 350 30 M 350 60 M 260 60" fill="none" stroke="rgb(0, 0, 0)" stroke-linecap="square" stroke-miterlimit="10" pointer-events="none"/><g fill="rgb(0, 0, 0)" font-family="Helvetica" font-weight="bold" pointer-events="none" clip-path="url(#mx-clip-260-30-90-30-0)" text-anchor="middle" font-size="12px"><text x="304.5" y="49.5">ObjectID </text></g><path d="M 350 30 M 440 30 M 440 60 M 350 60" fill="none" stroke="rgb(0, 0, 0)" stroke-linecap="square" stroke-miterlimit="10" pointer-events="none"/><g fill="rgb(0, 0, 0)" font-family="Helvetica" font-weight="bold" text-decoration="underline" pointer-events="none" clip-path="url(#mx-clip-356-30-84-30-0)" font-size="12px"><text x="357.5" y="49.5">id</text></g><path d="M 260 60 M 350 60 M 350 90 M 260 90" fill="none" stroke="rgb(0, 0, 0)" stroke-linecap="square" stroke-miterlimit="10" pointer-events="none"/><g fill="rgb(0, 0, 0)" font-family="Helvetica" pointer-events="none" clip-path="url(#mx-clip-260-60-90-30-0)" text-anchor="middle" font-size="12px"><text x="304.5" y="79.5">string</text></g><path d="M 350 60 M 440 60 M 440 90 M 350 90" fill="none" stroke="rgb(0, 0, 0)" stroke-linecap="square" stroke-miterlimit="10" pointer-events="none"/><g fill="rgb(0, 0, 0)" font-family="Helvetica" pointer-events="none" clip-path="url(#mx-clip-356-60-84-30-0)" font-size="12px"><text x="357.5" y="79.5">name</text></g><path d="M 260 90 M 350 90 M 350 120 M 260 120" fill="none" stroke="rgb(0, 0, 0)" stroke-linecap="square" stroke-miterlimit="10" pointer-events="none"/><g fill="rgb(0, 0, 0)" font-family="Helvetica" pointer-events="none" clip-path="url(#mx-clip-260-90-90-30-0)" text-anchor="middle" font-size="12px"><text x="304.5" y="109.5">List[Link[Text]]</text></g><path d="M 350 90 M 440 90 M 440 120 M 350 120" fill="none" stroke="rgb(0, 0, 0)" stroke-linecap="square" stroke-miterlimit="10" pointer-events="none"/><g fill="rgb(0, 0, 0)" font-family="Helvetica" pointer-events="none" clip-path="url(#mx-clip-356-90-84-30-0)" font-size="12px"><text x="357.5" y="109.5">texts</text></g><path d="M 260 120 M 350 120 M 350 150 M 260 150" fill="none" stroke="rgb(0, 0, 0)" stroke-linecap="square" stroke-miterlimit="10" pointer-events="none"/><g fill="rgb(0, 0, 0)" font-family="Helvetica" pointer-events="none" clip-path="url(#mx-clip-260-120-90-30-0)" text-anchor="middle" font-size="12px"><text x="304.5" y="139.5">ProjectData</text></g><path d="M 350 120 M 440 120 M 440 150 M 350 150" fill="none" stroke="rgb(0, 0, 0)" stroke-linecap="square" stroke-miterlimit="10" pointer-events="none"/><g fill="rgb(0, 0, 0)" font-family="Helvetica" pointer-events="none" clip-path="url(#mx-clip-356-120-84-30-0)" font-size="12px"><text x="357.5" y="139.5">data</text></g><path d="M 260 150 M 350 150 M 350 180 M 260 180" fill="none" stroke="rgb(0, 0, 0)" stroke-linecap="square" stroke-miterlimit="10" pointer-events="none"/><g fill="rgb(0, 0, 0)" font-family="Helvetica" pointer-events="none" clip-path="url(#mx-clip-260-150-90-30-0)" text-anchor="middle" font-size="12px"><text x="304.5" y="169.5">bool</text></g><path d="M 350 150 M 440 150 M 440 180 M 350 180" fill="none" stroke="rgb(0, 0, 0)" stroke-linecap="square" stroke-miterlimit="10" pointer-events="none"/><g fill="rgb(0, 0, 0)" font-family="Helvetica" pointer-events="none" clip-path="url(#mx-clip-356-150-84-30-0)" font-size="12px"><text x="357.5" y="169.5">is_multi_label</text></g><path d="M 260 180 M 350 180 M 350 210 M 260 210" fill="none" stroke="rgb(0, 0, 0)" stroke-linecap="square" stroke-miterlimit="10" pointer-events="none"/><g fill="rgb(0, 0, 0)" font-family="Helvetica" pointer-events="none" clip-path="url(#mx-clip-260-180-90-30-0)" text-anchor="middle" font-size="12px"><text x="304.5" y="199.5">string</text></g><path d="M 350 180 M 440 180 M 440 210 M 350 210" fill="none" stroke="rgb(0, 0, 0)" stroke-linecap="square" stroke-miterlimit="10" pointer-events="none"/><g fill="rgb(0, 0, 0)" font-family="Helvetica" pointer-events="none" clip-path="url(#mx-clip-356-180-84-30-0)" font-size="12px"><text x="357.5" y="199.5">owner</text></g><path d="M 260 210 M 350 210 M 350 240 M 260 240" fill="none" stroke="rgb(0, 0, 0)" stroke-linecap="square" stroke-miterlimit="10" pointer-events="none"/><g fill="rgb(0, 0, 0)" font-family="Helvetica" pointer-events="none" clip-path="url(#mx-clip-260-210-90-30-0)" text-anchor="middle" font-size="12px"><text x="304.5" y="229.5">string</text></g><path d="M 350 210 M 440 210 M 440 240 M 350 240" fill="none" stroke="rgb(0, 0, 0)" stroke-linecap="square" stroke-miterlimit="10" pointer-events="none"/><g fill="rgb(0, 0, 0)" font-family="Helvetica" pointer-events="none" clip-path="url(#mx-clip-356-210-84-30-0)" font-size="12px"><text x="357.5" y="229.5">model_state</text></g><path d="M 0 190 L 0 160 L 180 160 L 180 190" fill="#e1d5e7" stroke="#9673a6" stroke-miterlimit="10" pointer-events="none"/><path d="M 0 190 L 0 290 L 180 290 L 180 190" fill="none" stroke="#9673a6" stroke-miterlimit="10" pointer-events="none"/><path d="M 0 190 L 180 190" fill="none" stroke="#9673a6" stroke-miterlimit="10" pointer-events="none"/><path d="M 70 190 L 70 220 L 70 250 L 70 280" fill="none" stroke="#9673a6" stroke-miterlimit="10" pointer-events="none"/><g fill="rgb(0, 0, 0)" font-family="Helvetica" font-weight="bold" pointer-events="none" text-anchor="middle" font-size="12px"><text x="89.5" y="179.5">ProjectData</text></g><path d="M 0 190 M 180 190 M 180 220 L 0 220" fill="none" stroke="rgb(0, 0, 0)" stroke-linecap="square" stroke-miterlimit="10" pointer-events="none"/><path d="M 0 190 M 70 190 M 70 220 M 0 220" fill="none" stroke="rgb(0, 0, 0)" stroke-linecap="square" stroke-miterlimit="10" pointer-events="none"/><g fill="rgb(0, 0, 0)" font-family="Helvetica" font-weight="bold" pointer-events="none" clip-path="url(#mx-clip-0-190-70-30-0)" text-anchor="middle" font-size="12px"><text x="34.5" y="209.5">ObjectID </text></g><path d="M 70 190 M 180 190 M 180 220 M 70 220" fill="none" stroke="rgb(0, 0, 0)" stroke-linecap="square" stroke-miterlimit="10" pointer-events="none"/><g fill="rgb(0, 0, 0)" font-family="Helvetica" font-weight="bold" text-decoration="underline" pointer-events="none" clip-path="url(#mx-clip-76-190-104-30-0)" font-size="12px"><text x="77.5" y="209.5">id</text></g><path d="M 0 220 M 70 220 M 70 250 M 0 250" fill="none" stroke="rgb(0, 0, 0)" stroke-linecap="square" stroke-miterlimit="10" pointer-events="none"/><g fill="rgb(0, 0, 0)" font-family="Helvetica" pointer-events="none" clip-path="url(#mx-clip-0-220-70-30-0)" text-anchor="middle" font-size="12px"><text x="34.5" y="239.5">List[string]</text></g><path d="M 70 220 M 180 220 M 180 250 M 70 250" fill="none" stroke="rgb(0, 0, 0)" stroke-linecap="square" stroke-miterlimit="10" pointer-events="none"/><g fill="rgb(0, 0, 0)" font-family="Helvetica" pointer-events="none" clip-path="url(#mx-clip-76-220-104-30-0)" font-size="12px"><text x="77.5" y="239.5">tags</text></g><path d="M 0 250 M 70 250 M 70 280 M 0 280" fill="none" stroke="rgb(0, 0, 0)" stroke-linecap="square" stroke-miterlimit="10" pointer-events="none"/><g fill="rgb(0, 0, 0)" font-family="Helvetica" pointer-events="none" clip-path="url(#mx-clip-0-250-70-30-0)" text-anchor="middle" font-size="12px"><text x="34.5" y="269.5">string</text></g><path d="M 70 250 M 180 250 M 180 280 M 70 280" fill="none" stroke="rgb(0, 0, 0)" stroke-linecap="square" stroke-miterlimit="10" pointer-events="none"/><g fill="rgb(0, 0, 0)" font-family="Helvetica" pointer-events="none" clip-path="url(#mx-clip-76-250-104-30-0)" font-size="12px"><text x="77.5" y="269.5">invite_url</text></g><path d="M 260 135 L 220 135 L 220 176 L 186.37 175.99" fill="none" stroke="rgb(0, 0, 0)" stroke-miterlimit="10" pointer-events="none"/><path d="M 181.12 175.99 L 188.12 172.49 L 186.37 175.99 L 188.12 179.49 Z" fill="rgb(0, 0, 0)" stroke="rgb(0, 0, 0)" stroke-miterlimit="10" pointer-events="none"/><path d="M 260 105 L 220 105 L 220 17 L 187.45 17.03" fill="none" stroke="rgb(0, 0, 0)" stroke-miterlimit="10" pointer-events="none"/><path d="M 182.2 17.03 L 189.2 13.52 L 187.45 17.03 L 189.2 20.52 Z" fill="rgb(0, 0, 0)" stroke="rgb(0, 0, 0)" stroke-miterlimit="10" pointer-events="none"/><path d="M 500 65 L 470 65 L 470 195 L 446.37 195" fill="none" stroke="rgb(0, 0, 0)" stroke-miterlimit="10" pointer-events="none"/><path d="M 441.12 195 L 448.12 191.5 L 446.37 195 L 448.12 198.5 Z" fill="rgb(0, 0, 0)" stroke="rgb(0, 0, 0)" stroke-miterlimit="10" pointer-events="none"/></g></svg>