<?xml version="1.0" encoding="UTF-8"?>
<!DOCTYPE svg PUBLIC "-//W3C//DTD SVG 1.1//EN" "http://www.w3.org/Graphics/SVG/1.1/DTD/svg11.dtd">
<svg xmlns="http://www.w3.org/2000/svg" xmlns:xlink="http://www.w3.org/1999/xlink" version="1.1" width="641px" height="391px" viewBox="-0.5 -0.5 641 391"><defs><clipPath id="mx-clip-220-230-70-30-0"><rect x="220" y="230" width="70" height="30"/></clipPath><clipPath id="mx-clip-296-230-104-30-0"><rect x="296" y="230" width="104" height="30"/></clipPath><clipPath id="mx-clip-220-260-70-30-0"><rect x="220" y="260" width="70" height="30"/></clipPath><clipPath id="mx-clip-296-260-104-30-0"><rect x="296" y="260" width="104" height="30"/></clipPath><clipPath id="mx-clip-220-290-70-30-0"><rect x="220" y="290" width="70" height="30"/></clipPath><clipPath id="mx-clip-296-290-104-30-0"><rect x="296" y="290" width="104" height="30"/></clipPath><clipPath id="mx-clip-220-320-70-30-0"><rect x="220" y="320" width="70" height="30"/></clipPath><clipPath id="mx-clip-296-320-104-30-0"><rect x="296" y="320" width="104" height="30"/></clipPath><clipPath id="mx-clip-220-350-70-30-0"><rect x="220" y="350" width="70" height="30"/></clipPath><clipPath id="mx-clip-296-350-104-30-0"><rect x="296" y="350" width="104" height="30"/></clipPath><clipPath id="mx-clip-110-30-70-30-0"><rect x="110" y="30" width="70" height="30"/></clipPath><clipPath id="mx-clip-186-30-104-30-0"><rect x="186" y="30" width="104" height="30"/></clipPath><clipPath id="mx-clip-110-60-70-30-0"><rect x="110" y="60" width="70" height="30"/></clipPath><clipPath id="mx-clip-186-60-104-30-0"><rect x="186" y="60" width="104" height="30"/></clipPath><clipPath id="mx-clip-110-90-70-30-0"><rect x="110" y="90" width="70" height="30"/></clipPath><clipPath id="mx-clip-186-90-104-30-0"><rect x="186" y="90" width="104" height="30"/></clipPath><clipPath id="mx-clip-460-40-90-30-0"><rect x="460" y="40" width="90" height="30"/></clipPath><clipPath id="mx-clip-556-40-84-30-0"><rect x="556" y="40" width="84" height="30"/></clipPath><clipPath id="mx-clip-460-70-90-30-0"><rect x="460" y="70" width="90" height="30"/></clipPath><clipPath id="mx-clip-556-70-84-30-0"><rect x="556" y="70" width="84" height="30"/></clipPath><clipPath id="mx-clip-460-100-90-30-0"><rect x="460" y="100" width="90" height="30"/></clipPath><clipPath id="mx-clip-556-100-84-30-0"><rect x="556" y="100" width="84" height="30"/></clipPath><clipPath id="mx-clip-460-130-90-30-0"><rect x="460" y="130" width="90" height="30"/></clipPath><clipPath id="mx-clip-556-130-84-30-0"><rect x="556" y="130" width="84" height="30"/></clipPath><clipPath id="mx-clip-460-160-90-30-0"><rect x="460" y="160" width="90" height="30"/></clipPath><clipPath id="mx-clip-556-160-84-30-0"><rect x="556" y="160" width="84" height="30"/></clipPath><clipPath id="mx-clip-460-190-90-30-0"><rect x="460" y="190" width="90" height="30"/></clipPath><clipPath id="mx-clip-556-190-84-30-0"><rect x="556" y="190" width="84" height="30"/></clipPath><clipPath id="mx-clip-460-220-90-30-0"><rect x="460" y="220" width="90" height="30"/></clipPath><clipPath id="mx-clip-556-220-84-30-0"><rect x="556" y="220" width="84" height="30"/></clipPath><clipPath id="mx-clip-0-190-70-30-0"><rect x="0" y="190" width="70" height="30"/></clipPath><clipPath id="mx-clip-76-190-104-30-0"><rect x="76" y="190" width="104" height="30"/></clipPath><clipPath id="mx-clip-0-220-70-30-0"><rect x="0" y="220" width="70" height="30"/></clipPath><clipPath id="mx-clip-76-220-104-30-0"><rect x="76" y="220" width="104" height="30"/></clipPath><clipPath id="mx-clip-0-250-70-30-0"><rect x="0" y="250" width="70" height="30"/></clipPath><clipPath id="mx-clip-76-250-104-30-0"><rect x="76" y="250" width="104" height="30"/></clipPath></defs><g><path d="M 220 230 L 220 200 L 400 200 L 400 230" fill="#d5e8d4" stroke="#82b366" stroke-miterlimit="10" pointer-events="all"/><path d="M 220 230 L 220 390 L 400 390 L 400 230" fill="none" stroke="#82b366" stroke-miterlimit="10" pointer-events="none"/><path d="M 220 230 L 400 230" fill="none" stroke="#82b366" stroke-miterlimit="10" pointer-events="none"/><path d="M 290 230 L 290 260 L 290 290 L 290 320 L 290 350 L 290 380" fill="none" stroke="#82b366" stroke-miterlimit="10" pointer-events="none"/><g fill="rgb(0, 0, 0)" font-family="Helvetica" font-weight="bold" pointer-events="none" text-anchor="middle" font-size="12px"><text x="309.5" y="219.5">User</text></g><path d="M 220 230 M 400 230 M 400 260 L 220 260" fill="none" stroke="rgb(0, 0, 0)" stroke-linecap="square" stroke-miterlimit="10" pointer-events="none"/><path d="M 220 230 M 290 230 M 290 260 M 220 260" fill="none" stroke="rgb(0, 0, 0)" stroke-linecap="square" stroke-miterlimit="10" pointer-events="none"/><g fill="rgb(0, 0, 0)" font-family="Helvetica" font-weight="bold" pointer-events="none" clip-path="url(#mx-clip-220-230-70-30-0)" text-anchor="middle" font-size="12px"><text x="254.5" y="249.5">ObjectID </text></g><path d="M 290 230 M 400 230 M 400 260 M 290 260" fill="none" stroke="rgb(0, 0, 0)" stroke-linecap="square" stroke-miterlimit="10" pointer-events="none"/><g fill="rgb(0, 0, 0)" font-family="Helvetica" font-weight="bold" text-decoration="underline" pointer-events="none" clip-path="url(#mx-clip-296-230-104-30-0)" font-size="12px"><text x="297.5" y="249.5">id</text></g><path d="M 220 260 M 290 260 M 290 290 M 220 290" fill="none" stroke="rgb(0, 0, 0)" stroke-linecap="square" stroke-miterlimit="10" pointer-events="none"/><g fill="rgb(0, 0, 0)" font-family="Helvetica" pointer-events="none" clip-path="url(#mx-clip-220-260-70-30-0)" text-anchor="middle" font-size="12px"><text x="254.5" y="279.5">string</text></g><path d="M 290 260 M 400 260 M 400 290 M 290 290" fill="none" stroke="rgb(0, 0, 0)" stroke-linecap="square" stroke-miterlimit="10" pointer-events="none"/><g fill="rgb(0, 0, 0)" font-family="Helvetica" pointer-events="none" clip-path="url(#mx-clip-296-260-104-30-0)" font-size="12px"><text x="297.5" y="279.5">username</text></g><path d="M 220 290 M 290 290 M 290 320 M 220 320" fill="none" stroke="rgb(0, 0, 0)" stroke-linecap="square" stroke-miterlimit="10" pointer-events="none"/><g fill="rgb(0, 0, 0)" font-family="Helvetica" pointer-events="none" clip-path="url(#mx-clip-220-290-70-30-0)" text-anchor="middle" font-size="12px"><text x="254.5" y="309.5">string</text></g><path d="M 290 290 M 400 290 M 400 320 M 290 320" fill="none" stroke="rgb(0, 0, 0)" stroke-linecap="square" stroke-miterlimit="10" pointer-events="none"/><g fill="rgb(0, 0, 0)" font-family="Helvetica" pointer-events="none" clip-path="url(#mx-clip-296-290-104-30-0)" font-size="12px"><text x="297.5" y="309.5">full_name</text></g><path d="M 220 320 M 290 320 M 290 350 M 220 350" fill="none" stroke="rgb(0, 0, 0)" stroke-linecap="square" stroke-miterlimit="10" pointer-events="none"/><g fill="rgb(0, 0, 0)" font-family="Helvetica" pointer-events="none" clip-path="url(#mx-clip-220-320-70-30-0)" text-anchor="middle" font-size="12px"><text x="254.5" y="339.5">string</text></g><path d="M 290 320 M 400 320 M 400 350 M 290 350" fill="none" stroke="rgb(0, 0, 0)" stroke-linecap="square" stroke-miterlimit="10" pointer-events="none"/><g fill="rgb(0, 0, 0)" font-family="Helvetica" pointer-events="none" clip-path="url(#mx-clip-296-320-104-30-0)" font-size="12px"><text x="297.5" y="339.5">email</text></g><path d="M 220 350 M 290 350 M 290 380 M 220 380" fill="none" stroke="rgb(0, 0, 0)" stroke-linecap="square" stroke-miterlimit="10" pointer-events="none"/><g fill="rgb(0, 0, 0)" font-family="Helvetica" pointer-events="none" clip-path="url(#mx-clip-220-350-70-30-0)" text-anchor="middle" font-size="12px"><text x="254.5" y="369.5">string</text></g><path d="M 290 350 M 400 350 M 400 380 M 290 380" fill="none" stroke="rgb(0, 0, 0)" stroke-linecap="square" stroke-miterlimit="10" pointer-events="none"/><g fill="rgb(0, 0, 0)" font-family="Helvetica" pointer-events="none" clip-path="url(#mx-clip-296-350-104-30-0)" font-size="12px"><text x="297.5" y="369.5">hashed_password</text></g><path d="M 110 30 L 110 0 L 290 0 L 290 30" fill="#ffe6cc" stroke="#d79b00" stroke-miterlimit="10" pointer-events="none"/><path d="M 110 30 L 110 130 L 290 130 L 290 30" fill="none" stroke="#d79b00" stroke-miterlimit="10" pointer-events="none"/><path d="M 110 30 L 290 30" fill="none" stroke="#d79b00" stroke-miterlimit="10" pointer-events="none"/><path d="M 180 30 L 180 60 L 180 90 L 180 120" fill="none" stroke="#d79b00" stroke-miterlimit="10" pointer-events="none"/><g fill="rgb(0, 0, 0)" font-family="Helvetica" font-weight="bold" pointer-events="none" text-anchor="middle" font-size="12px"><text x="199.5" y="19.5">Text</text></g><path d="M 110 30 M 290 30 M 290 60 L 110 60" fill="none" stroke="rgb(0, 0, 0)" stroke-linecap="square" stroke-miterlimit="10" pointer-events="none"/><path d="M 110 30 M 180 30 M 180 60 M 110 60" fill="none" stroke="rgb(0, 0, 0)" stroke-linecap="square" stroke-miterlimit="10" pointer-events="none"/><g fill="rgb(0, 0, 0)" font-family="Helvetica" font-weight="bold" pointer-events="none" clip-path="url(#mx-clip-110-30-70-30-0)" text-anchor="middle" font-size="12px"><text x="144.5" y="49.5">ObjectID </text></g><path d="M 180 30 M 290 30 M 290 60 M 180 60" fill="none" stroke="rgb(0, 0, 0)" stroke-linecap="square" stroke-miterlimit="10" pointer-events="none"/><g fill="rgb(0, 0, 0)" font-family="Helvetica" font-weight="bold" text-decoration="underline" pointer-events="none" clip-path="url(#mx-clip-186-30-104-30-0)" font-size="12px"><text x="187.5" y="49.5">id</text></g><path d="M 110 60 M 180 60 M 180 90 M 110 90" fill="none" stroke="rgb(0, 0, 0)" stroke-linecap="square" stroke-miterlimit="10" pointer-events="none"/><g fill="rgb(0, 0, 0)" font-family="Helvetica" pointer-events="none" clip-path="url(#mx-clip-110-60-70-30-0)" text-anchor="middle" font-size="12px"><text x="144.5" y="79.5">string</text></g><path d="M 180 60 M 290 60 M 290 90 M 180 90" fill="none" stroke="rgb(0, 0, 0)" stroke-linecap="square" stroke-miterlimit="10" pointer-events="none"/><g fill="rgb(0, 0, 0)" font-family="Helvetica" pointer-events="none" clip-path="url(#mx-clip-186-60-104-30-0)" font-size="12px"><text x="187.5" y="79.5">value</text></g><path d="M 110 90 M 180 90 M 180 120 M 110 120" fill="none" stroke="rgb(0, 0, 0)" stroke-linecap="square" stroke-miterlimit="10" pointer-events="none"/><g fill="rgb(0, 0, 0)" font-family="Helvetica" pointer-events="none" clip-path="url(#mx-clip-110-90-70-30-0)" text-anchor="middle" font-size="12px"><text x="144.5" y="109.5">array[str]</text></g><path d="M 180 90 M 290 90 M 290 120 M 180 120" fill="none" stroke="rgb(0, 0, 0)" stroke-linecap="square" stroke-miterlimit="10" pointer-events="none"/><g fill="rgb(0, 0, 0)" font-family="Helvetica" pointer-events="none" clip-path="url(#mx-clip-186-90-104-30-0)" font-size="12px"><text x="187.5" y="109.5">tags</text></g><path d="M 460 40 L 460 10 L 640 10 L 640 40" fill="#dae8fc" stroke="#6c8ebf" stroke-miterlimit="10" pointer-events="none"/><path d="M 460 40 L 460 260 L 640 260 L 640 40" fill="none" stroke="#6c8ebf" stroke-miterlimit="10" pointer-events="none"/><path d="M 460 40 L 640 40" fill="none" stroke="#6c8ebf" stroke-miterlimit="10" pointer-events="none"/><path d="M 550 40 L 550 70 L 550 100 L 550 130 L 550 160 L 550 190 L 550 220 L 550 250" fill="none" stroke="#6c8ebf" stroke-miterlimit="10" pointer-events="none"/><g fill="rgb(0, 0, 0)" font-family="Helvetica" font-weight="bold" pointer-events="none" text-anchor="middle" font-size="12px"><text x="549.5" y="29.5">Project</text></g><path d="M 460 40 M 640 40 M 640 70 L 460 70" fill="none" stroke="rgb(0, 0, 0)" stroke-linecap="square" stroke-miterlimit="10" pointer-events="none"/><path d="M 460 40 M 550 40 M 550 70 M 460 70" fill="none" stroke="rgb(0, 0, 0)" stroke-linecap="square" stroke-miterlimit="10" pointer-events="none"/><g fill="rgb(0, 0, 0)" font-family="Helvetica" font-weight="bold" pointer-events="none" clip-path="url(#mx-clip-460-40-90-30-0)" text-anchor="middle" font-size="12px"><text x="504.5" y="59.5">ObjectID </text></g><path d="M 550 40 M 640 40 M 640 70 M 550 70" fill="none" stroke="rgb(0, 0, 0)" stroke-linecap="square" stroke-miterlimit="10" pointer-events="none"/><g fill="rgb(0, 0, 0)" font-family="Helvetica" font-weight="bold" text-decoration="underline" pointer-events="none" clip-path="url(#mx-clip-556-40-84-30-0)" font-size="12px"><text x="557.5" y="59.5">id</text></g><path d="M 460 70 M 550 70 M 550 100 M 460 100" fill="none" stroke="rgb(0, 0, 0)" stroke-linecap="square" stroke-miterlimit="10" pointer-events="none"/><g fill="rgb(0, 0, 0)" font-family="Helvetica" pointer-events="none" clip-path="url(#mx-clip-460-70-90-30-0)" text-anchor="middle" font-size="12px"><text x="504.5" y="89.5">string</text></g><path d="M 550 70 M 640 70 M 640 100 M 550 100" fill="none" stroke="rgb(0, 0, 0)" stroke-linecap="square" stroke-miterlimit="10" pointer-events="none"/><g fill="rgb(0, 0, 0)" font-family="Helvetica" pointer-events="none" clip-path="url(#mx-clip-556-70-84-30-0)" font-size="12px"><text x="557.5" y="89.5">name</text></g><path d="M 460 100 M 550 100 M 550 130 M 460 130" fill="none" stroke="rgb(0, 0, 0)" stroke-linecap="square" stroke-miterlimit="10" pointer-events="none"/><g fill="rgb(0, 0, 0)" font-family="Helvetica" pointer-events="none" clip-path="url(#mx-clip-460-100-90-30-0)" text-anchor="middle" font-size="12px"><text x="504.5" y="119.5">List[Link[Text]]</text></g><path d="M 550 100 M 640 100 M 640 130 M 550 130" fill="none" stroke="rgb(0, 0, 0)" stroke-linecap="square" stroke-miterlimit="10" pointer-events="none"/><g fill="rgb(0, 0, 0)" font-family="Helvetica" pointer-events="none" clip-path="url(#mx-clip-556-100-84-30-0)" font-size="12px"><text x="557.5" y="119.5">texts</text></g><path d="M 460 130 M 550 130 M 550 160 M 460 160" fill="none" stroke="rgb(0, 0, 0)" stroke-linecap="square" stroke-miterlimit="10" pointer-events="none"/><g fill="rgb(0, 0, 0)" font-family="Helvetica" pointer-events="none" clip-path="url(#mx-clip-460-130-90-30-0)" text-anchor="middle" font-size="12px"><text x="504.5" y="149.5">ProjectData</text></g><path d="M 550 130 M 640 130 M 640 160 M 550 160" fill="none" stroke="rgb(0, 0, 0)" stroke-linecap="square" stroke-miterlimit="10" pointer-events="none"/><g fill="rgb(0, 0, 0)" font-family="Helvetica" pointer-events="none" clip-path="url(#mx-clip-556-130-84-30-0)" font-size="12px"><text x="557.5" y="149.5">data</text></g><path d="M 460 160 M 550 160 M 550 190 M 460 190" fill="none" stroke="rgb(0, 0, 0)" stroke-linecap="square" stroke-miterlimit="10" pointer-events="none"/><g fill="rgb(0, 0, 0)" font-family="Helvetica" pointer-events="none" clip-path="url(#mx-clip-460-160-90-30-0)" text-anchor="middle" font-size="12px"><text x="504.5" y="179.5">bool</text></g><path d="M 550 160 M 640 160 M 640 190 M 550 190" fill="none" stroke="rgb(0, 0, 0)" stroke-linecap="square" stroke-miterlimit="10" pointer-events="none"/><g fill="rgb(0, 0, 0)" font-family="Helvetica" pointer-events="none" clip-path="url(#mx-clip-556-160-84-30-0)" font-size="12px"><text x="557.5" y="179.5">is_multi_label</text></g><path d="M 460 190 M 550 190 M 550 220 M 460 220" fill="none" stroke="rgb(0, 0, 0)" stroke-linecap="square" stroke-miterlimit="10" pointer-events="none"/><g fill="rgb(0, 0, 0)" font-family="Helvetica" pointer-events="none" clip-path="url(#mx-clip-460-190-90-30-0)" text-anchor="middle" font-size="12px"><text x="504.5" y="209.5">string</text></g><path d="M 550 190 M 640 190 M 640 220 M 550 220" fill="none" stroke="rgb(0, 0, 0)" stroke-linecap="square" stroke-miterlimit="10" pointer-events="none"/><g fill="rgb(0, 0, 0)" font-family="Helvetica" pointer-events="none" clip-path="url(#mx-clip-556-190-84-30-0)" font-size="12px"><text x="557.5" y="209.5">owner</text></g><path d="M 460 220 M 550 220 M 550 250 M 460 250" fill="none" stroke="rgb(0, 0, 0)" stroke-linecap="square" stroke-miterlimit="10" pointer-events="none"/><g fill="rgb(0, 0, 0)" font-family="Helvetica" pointer-events="none" clip-path="url(#mx-clip-460-220-90-30-0)" text-anchor="middle" font-size="12px"><text x="504.5" y="239.5">string</text></g><path d="M 550 220 M 640 220 M 640 250 M 550 250" fill="none" stroke="rgb(0, 0, 0)" stroke-linecap="square" stroke-miterlimit="10" pointer-events="none"/><g fill="rgb(0, 0, 0)" font-family="Helvetica" pointer-events="none" clip-path="url(#mx-clip-556-220-84-30-0)" font-size="12px"><text x="557.5" y="239.5">model_state</text></g><path d="M 0 190 L 0 160 L 180 160 L 180 190" fill="#e1d5e7" stroke="#9673a6" stroke-miterlimit="10" pointer-events="none"/><path d="M 0 190 L 0 290 L 180 290 L 180 190" fill="none" stroke="#9673a6" stroke-miterlimit="10" pointer-events="none"/><path d="M 0 190 L 180 190" fill="none" stroke="#9673a6" stroke-miterlimit="10" pointer-events="none"/><path d="M 70 190 L 70 220 L 70 250 L 70 280" fill="none" stroke="#9673a6" stroke-miterlimit="10" pointer-events="none"/><g fill="rgb(0, 0, 0)" font-family="Helvetica" font-weight="bold" pointer-events="none" text-anchor="middle" font-size="12px"><text x="89.5" y="179.5">ProjectData</text></g><path d="M 0 190 M 180 190 M 180 220 L 0 220" fill="none" stroke="rgb(0, 0, 0)" stroke-linecap="square" stroke-miterlimit="10" pointer-events="none"/><path d="M 0 190 M 70 190 M 70 220 M 0 220" fill="none" stroke="rgb(0, 0, 0)" stroke-linecap="square" stroke-miterlimit="10" pointer-events="none"/><g fill="rgb(0, 0, 0)" font-family="Helvetica" font-weight="bold" pointer-events="none" clip-path="url(#mx-clip-0-190-70-30-0)" text-anchor="middle" font-size="12px"><text x="34.5" y="209.5">ObjectID </text></g><path d="M 70 190 M 180 190 M 180 220 M 70 220" fill="none" stroke="rgb(0, 0, 0)" stroke-linecap="square" stroke-miterlimit="10" pointer-events="none"/><g fill="rgb(0, 0, 0)" font-family="Helvetica" font-weight="bold" text-decoration="underline" pointer-events="none" clip-path="url(#mx-clip-76-190-104-30-0)" font-size="12px"><text x="77.5" y="209.5">id</text></g><path d="M 0 220 M 70 220 M 70 250 M 0 250" fill="none" stroke="rgb(0, 0, 0)" stroke-linecap="square" stroke-miterlimit="10" pointer-events="none"/><g fill="rgb(0, 0, 0)" font-family="Helvetica" pointer-events="none" clip-path="url(#mx-clip-0-220-70-30-0)" text-anchor="middle" font-size="12px"><text x="34.5" y="239.5">List[string]</text></g><path d="M 70 220 M 180 220 M 180 250 M 70 250" fill="none" stroke="rgb(0, 0, 0)" stroke-linecap="square" stroke-miterlimit="10" pointer-events="none"/><g fill="rgb(0, 0, 0)" font-family="Helvetica" pointer-events="none" clip-path="url(#mx-clip-76-220-104-30-0)" font-size="12px"><text x="77.5" y="239.5">tags</text></g><path d="M 0 250 M 70 250 M 70 280 M 0 280" fill="none" stroke="rgb(0, 0, 0)" stroke-linecap="square" stroke-miterlimit="10" pointer-events="none"/><g fill="rgb(0, 0, 0)" font-family="Helvetica" pointer-events="none" clip-path="url(#mx-clip-0-250-70-30-0)" text-anchor="middle" font-size="12px"><text x="34.5" y="269.5">string</text></g><path d="M 70 250 M 180 250 M 180 280 M 70 280" fill="none" stroke="rgb(0, 0, 0)" stroke-linecap="square" stroke-miterlimit="10" pointer-events="none"/><g fill="rgb(0, 0, 0)" font-family="Helvetica" pointer-events="none" clip-path="url(#mx-clip-76-250-104-30-0)" font-size="12px"><text x="77.5" y="269.5">invite_url</text></g><path d="M 460 145 L 320 145 L 320 176 L 186.37 175.99" fill="none" stroke="rgb(0, 0, 0)" stroke-miterlimit="10" pointer-events="none"/><path d="M 181.12 175.99 L 188.12 172.49 L 186.37 175.99 L 188.12 179.49 Z" fill="rgb(0, 0, 0)" stroke="rgb(0, 0, 0)" stroke-miterlimit="10" pointer-events="none"/><path d="M 460 115 L 375 115 L 375 17 L 297.45 17.03" fill="none" stroke="rgb(0, 0, 0)" stroke-miterlimit="10" pointer-events="none"/><path d="M 292.2 17.03 L 299.2 13.53 L 297.45 17.03 L 299.2 20.53 Z" fill="rgb(0, 0, 0)" stroke="rgb(0, 0, 0)" stroke-miterlimit="10" pointer-events="none"/><path d="M 400 245 L 430 245 L 430 205 L 453.63 205" fill="none" stroke="rgb(0, 0, 0)" stroke-miterlimit="10" pointer-events="none"/><path d="M 458.88 205 L 451.88 208.5 L 453.63 205 L 451.88 201.5 Z" fill="rgb(0, 0, 0)" stroke="rgb(0, 0, 0)" stroke-miterlimit="10" pointer-events="none"/></g></svg>